<svg height="141.7" viewBox="0 0 553.4 141.7" width="553.4" xmlns="http://www.w3.org/2000/svg" xmlns:xlink="http://www.w3.org/1999/xlink"><clipPath id="a"><path d="m0 0h553.4v141.7h-553.4z"/></clipPath><g clip-path="url(#a)"><path d="m385.4 120c0-.8.2-1.5.5-2.1s.8-1.1 1.4-1.6 1.4-.8 2.4-1c.9-.2 2-.3 3.2-.3h6.7v5.3c-.4.4-.7.8-1.1 1.1-1.1.9-2.3 1.6-3.6 2.1s-2.8.8-4.2.8c-1 0-1.9-.2-2.7-.5-.8-.4-1.4-.9-1.9-1.5s-.7-1.4-.7-2.3m-9.3-5c-.8 1.6-1.1 3.4-1.1 5.5 0 2.4.6 4.6 1.8 6.4s2.8 3.2 4.9 4.2 4.4 1.5 6.9 1.5c2 0 3.9-.4 5.6-1.1 1.8-.8 3.4-1.8 5-3.1.2-.1.3-.3.5-.4v3.9h10.2v-27.4c0-3.1-.7-5.7-2-7.7s-3.2-3.6-5.6-4.6-5.3-1.5-8.5-1.5c-3.6 0-6.9.7-9.9 2.1s-5.8 3.3-8.2 5.9l6.6 6.4c1.4-1.7 2.9-3 4.6-3.8 1.6-.8 3.5-1.2 5.6-1.2 2.2 0 3.9.6 5.2 1.7s1.9 2.8 1.9 4.9v1.1h-6.6c-3 0-5.6.3-7.9.8-2.3.6-4.1 1.4-5.6 2.4s-2.6 2.4-3.4 4m-86.4-23.5h-10.8v25c0 3.4.6 6.2 1.7 8.7s2.8 4.3 4.9 5.6 4.7 1.9 7.6 1.9c2.3 0 4.4-.4 6.4-1.3s3.7-2.1 5.1-3.6l1.2-1.5.2 5.6h10.3v-40.4h-10.8v24.1c0 1.2-.2 2.2-.6 3.2s-1 1.8-1.7 2.5-1.6 1.3-2.6 1.6c-1 .4-2.1.6-3.3.6-2.4 0-4.3-.8-5.6-2.4s-2-3.8-2-6.7zm-195.3 25.6 4.6 7.9-4.6 7.9h9.3l5.2 8.9 5.2-8.9h9.3l-4.6-7.9 4.6-7.9h-9.3l-5.2-8.9-5.2 8.9zm-94.4 0 4.6 7.9-4.6 7.9h9.3l5.2 8.9 5.2-8.9h9.3l-4.6-7.9 4.6-7.9h-9.3l-5.2-8.9-5.2 8.9zm29-92.4-4.6-7.9 4.6-7.9h-9.3l-5.2-8.9-5.2 8.9h-9.3l4.6 7.9-4.6 7.9h9.3l5.2 8.9 5.2-8.9zm0 54-4.6-7.9 4.6-7.9h-9.3l-5.2-8.9-5.2 8.9h-9.3l4.6 7.9-4.6 7.9h9.3l5.2 8.9 5.2-8.9zm22.5 63.1 20.4-21.2v-99.3l-20.4-21.2zm72-117.1-4.6-7.9 4.6-7.9h-9.3l-5.2-8.9-5.2 8.9h-9.3l4.6 7.9-4.6 7.9h9.3l5.2 8.9 5.2-8.9zm0 54-4.6-7.9 4.6-7.9h-9.3l-5.2-8.9-5.2 8.9h-9.3l4.6 7.9-4.6 7.9h9.3l5.2 8.9 5.2-8.9zm96.2-37.7c1.2-2.9 1.8-6 1.8-9.5v-1.9c0-.8-.1-1.6-.1-2.4-.1-.8-.1-1.5-.2-2.1h-24.6v9.6h13.6c0 1.3-.4 2.5-1 3.7-.7 1.2-1.6 2.3-2.7 3.2s-2.5 1.6-4 2.2c-1.5.5-3.1.8-4.8.8-2.4 0-4.6-.4-6.7-1.3s-3.9-2.1-5.5-3.7-2.8-3.4-3.7-5.5-1.3-4.3-1.3-6.7.4-4.7 1.3-6.8c.8-2.1 2-3.9 3.5-5.5s3.3-2.7 5.3-3.6c2-.8 4.2-1.3 6.6-1.3 2.6 0 5 .5 7.2 1.6 2.2 1 4.3 2.5 6.3 4.4l7.1-7.5c-1.4-1.7-3.1-3.3-5.3-4.6-2.1-1.3-4.5-2.4-7.1-3.1-2.6-.8-5.3-1.1-8.2-1.1-4.1 0-7.9.7-11.4 2.1s-6.5 3.3-9 5.8c-2.6 2.5-4.6 5.4-5.9 8.7-1.4 3.4-2.1 7-2.1 10.9s.7 7.6 2 10.9c1.3 3.4 3.3 6.3 5.8 8.8s5.4 4.4 8.8 5.8 7.2 2.1 11.4 2.1c3.5 0 6.7-.6 9.7-1.7s5.6-2.8 7.9-4.8c2.4-2.1 4.1-4.6 5.3-7.5m0 77.6c1.2-2.9 1.8-6 1.8-9.5v-1.9c0-.8-.1-1.6-.1-2.4-.1-.8-.1-1.5-.2-2.1h-24.6v9.6h13.6c0 1.3-.4 2.5-1 3.7-.7 1.2-1.6 2.3-2.7 3.2s-2.5 1.6-4 2.2c-1.5.5-3.1.8-4.8.8-2.4 0-4.6-.4-6.7-1.3s-3.9-2.1-5.5-3.7-2.8-3.4-3.7-5.5-1.3-4.3-1.3-6.7.4-4.7 1.3-6.8c.8-2.1 2-3.9 3.5-5.5s3.3-2.7 5.3-3.6c2-.8 4.2-1.3 6.6-1.3 2.6 0 5 .5 7.2 1.6 2.2 1 4.3 2.5 6.3 4.4l7.1-7.5c-1.4-1.7-3.1-3.3-5.3-4.6-2.1-1.3-4.5-2.4-7.1-3.1-2.6-.8-5.3-1.1-8.2-1.1-4.1 0-7.9.7-11.4 2.1s-6.5 3.3-9 5.8c-2.6 2.5-4.6 5.4-5.9 8.7-1.4 3.4-2.1 7-2.1 10.9s.7 7.6 2 10.9c1.3 3.4 3.3 6.3 5.8 8.8s5.4 4.4 8.8 5.8 7.2 2.1 11.4 2.1c3.5 0 6.7-.6 9.7-1.7s5.6-2.8 7.9-4.8c2.4-2.1 4.1-4.6 5.3-7.5m37.3-88.8h-18.4c.2-.8.5-1.6.8-2.3.8-1.7 2-2.9 3.5-3.8 1.6-.9 3.5-1.3 5.8-1.3 1.5 0 2.8.3 4 1 1.2.6 2.2 1.5 3 2.6s1.2 2.3 1.3 3.7zm10.2 6.7.1-3.4c0-2.9-.4-5.6-1.3-8s-2.2-4.6-3.9-6.4-3.7-3.2-6-4.2-4.8-1.5-7.6-1.5c-3 0-5.8.5-8.3 1.6-2.5 1-4.7 2.5-6.5 4.4s-3.3 4.1-4.3 6.8c-1 2.6-1.5 5.5-1.5 8.7 0 4 .9 7.5 2.7 10.6s4.3 5.5 7.6 7.3 7.1 2.7 11.5 2.7c1.9 0 3.8-.2 5.6-.7 1.9-.5 3.7-1.1 5.5-2.1 1.8-.9 3.4-2 4.8-3.3l-5.1-7.2c-1.7 1.4-3.3 2.3-4.8 2.9s-3.1.8-4.9.8c-2.6 0-4.8-.5-6.7-1.4-1.9-1-3.4-2.4-4.4-4.2-.6-1-1-2.2-1.2-3.4zm-7.7 75.2c0 2.2-.4 4.1-1.3 5.9-.9 1.7-2.1 3.1-3.7 4.1s-3.3 1.5-5.4 1.5c-2 0-3.8-.5-5.3-1.5-1.6-1-2.8-2.4-3.7-4.1s-1.3-3.7-1.3-5.9c-.1-2.3.4-4.3 1.3-6s2.2-3.1 3.7-4.1c1.6-1 3.4-1.5 5.3-1.5 2 0 3.8.5 5.4 1.5 1.5 1 2.8 2.4 3.7 4.1 1 1.7 1.4 3.7 1.3 6m8.3 10.8c1.9-3.2 2.8-6.7 2.8-10.8s-.9-7.8-2.8-10.9c-1.9-3.2-4.4-5.6-7.6-7.4s-6.9-2.7-11-2.7-7.7.9-10.9 2.7-5.8 4.3-7.6 7.4c-1.9 3.2-2.8 6.8-2.8 10.9 0 4 .9 7.6 2.8 10.8s4.4 5.6 7.6 7.4 6.9 2.7 10.9 2.7c4.1 0 7.8-.9 11-2.7s5.7-4.3 7.6-7.4m59.1-68.2h10.8v-24.4c0-3.7-.5-6.7-1.6-9.2-1-2.5-2.6-4.3-4.7-5.6s-4.7-1.9-7.8-1.9c-1.3 0-2.7.2-4 .6-1.4.4-2.7 1-4 1.7s-2.4 1.6-3.4 2.6c-.8.8-1.5 1.7-2.1 2.7-.5-1.4-1.2-2.5-2-3.5-1.2-1.4-2.6-2.5-4.2-3.1-1.7-.7-3.5-1-5.7-1-1.4 0-2.8.2-4.2.7s-2.7 1.1-3.9 1.8c-1.2.8-2.3 1.7-3.2 2.8-.2.3-.4.5-.6.8l-.2-5.3h-10.4v40.3h10.9v-24c0-1.1.2-2.1.6-3.1.4-.9 1-1.8 1.7-2.4.7-.7 1.6-1.2 2.6-1.6s2.1-.6 3.2-.6c2.1 0 3.8.7 4.9 2.1s1.7 3.3 1.7 5.9v23.8h10.8v-24c0-1.1.2-2.1.6-3.1.4-.9 1-1.7 1.7-2.4s1.6-1.3 2.6-1.6c1-.4 2.1-.6 3.3-.6 2.2 0 3.9.7 5 2s1.6 3.4 1.6 6.1zm18.9 45.4c2.1 0 3.9.5 5.4 1.5s2.7 2.4 3.5 4.2c.9 1.8 1.3 3.9 1.3 6.3 0 2.3-.4 4.4-1.3 6.2s-2 3.2-3.5 4.2-3.3 1.5-5.4 1.5c-2 0-3.7-.5-5.3-1.5-1.5-1-2.7-2.4-3.5-4.2s-1.3-3.8-1.3-6.2.4-4.5 1.3-6.3c.8-1.8 2-3.2 3.5-4.2s3.3-1.5 5.3-1.5m3.1-8.1c-1.8-.6-3.6-.9-5.5-.9-3.6 0-6.7.9-9.5 2.7s-5 4.3-6.6 7.5-2.4 6.8-2.4 10.8.8 7.6 2.4 10.8 3.8 5.7 6.6 7.4c2.8 1.8 6 2.7 9.5 2.7 1.9 0 3.7-.3 5.4-.8s3.2-1.3 4.6-2.2c1-.7 1.9-1.5 2.6-2.4l.2 4.6h10.2v-56.4h-10.8v20.4c-.6-.7-1.3-1.3-2.1-1.9-1.3-1-2.9-1.8-4.6-2.3m25.9-61.8h-18.4c.2-.8.5-1.6.8-2.3.8-1.7 2-2.9 3.5-3.8s3.5-1.3 5.8-1.3c1.5 0 2.8.3 4 1 1.2.6 2.2 1.5 3 2.6s1.2 2.3 1.3 3.7zm10.3 6.7.1-3.4c0-2.9-.4-5.6-1.3-8s-2.2-4.6-3.9-6.4-3.7-3.2-6-4.2-4.8-1.5-7.6-1.5c-3 0-5.8.5-8.3 1.6-2.5 1-4.7 2.5-6.5 4.4s-3.3 4.1-4.3 6.8c-1 2.6-1.5 5.5-1.5 8.7 0 4 .9 7.5 2.7 10.6s4.3 5.5 7.6 7.3 7.1 2.7 11.5 2.7c1.9 0 3.8-.2 5.6-.7 1.9-.5 3.7-1.1 5.5-2.1 1.8-.9 3.4-2 4.8-3.3l-5.1-7.2c-1.7 1.4-3.3 2.3-4.8 2.9s-3.1.8-4.9.8c-2.6 0-4.8-.5-6.8-1.4-1.9-1-3.4-2.4-4.4-4.2-.6-1-1-2.2-1.2-3.4zm34.9-6.7h-18.4c.2-.8.5-1.6.8-2.3.8-1.7 2-2.9 3.5-3.8s3.5-1.3 5.8-1.3c1.5 0 2.8.3 4 1 1.2.6 2.2 1.5 3 2.6s1.2 2.3 1.3 3.7zm10.2 6.7.1-3.4c0-2.9-.4-5.6-1.3-8s-2.2-4.6-3.9-6.4-3.7-3.2-6-4.2-4.8-1.5-7.6-1.5c-3 0-5.8.5-8.3 1.6-2.5 1-4.7 2.5-6.5 4.4s-3.3 4.1-4.3 6.8c-1 2.6-1.5 5.5-1.5 8.7 0 4 .9 7.5 2.7 10.6s4.3 5.5 7.6 7.3 7.1 2.7 11.5 2.7c1.9 0 3.8-.2 5.6-.7 1.9-.5 3.7-1.1 5.5-2.1 1.8-.9 3.4-2 4.8-3.3l-5.1-7.2c-1.7 1.4-3.3 2.3-4.8 2.9s-3.1.8-4.9.8c-2.6 0-4.8-.5-6.8-1.4-1.9-1-3.4-2.4-4.4-4.2-.6-1-1-2.2-1.2-3.4zm34.7 17.8h10.8v-24.6c0-3.7-.5-6.7-1.6-9.2-1-2.5-2.6-4.3-4.7-5.5s-4.6-1.8-7.7-1.8c-2.2 0-4.3.5-6.3 1.4s-3.8 2.1-5.3 3.6c-.3.3-.7.7-.9 1.1l-.2-5.2h-10.4v40.3h10.9v-24.2c0-1.1.2-2.1.6-3.1.4-.9 1-1.7 1.8-2.4s1.7-1.3 2.7-1.6c1-.4 2.1-.6 3.4-.6 1.6 0 2.9.2 3.9.8s1.8 1.4 2.3 2.7c.5 1.2.8 2.7.8 4.6v23.7zm36.3-30.7h8.3v-9.7h-8.3v-10.2h-10.8v10.2h-7.6v9.7h7.6v30.7h10.8v-30.7zm41.8 6.2h-18.4c.2-.8.5-1.6.8-2.3.8-1.7 2-2.9 3.5-3.8s3.5-1.3 5.8-1.3c1.5 0 2.8.3 4 1 1.2.6 2.2 1.5 3 2.6s1.2 2.3 1.3 3.7zm10.3 3.3c0-2.9-.4-5.6-1.3-8s-2.2-4.6-3.9-6.4-3.7-3.2-6-4.2-4.8-1.5-7.6-1.5c-3 0-5.8.5-8.3 1.6-2.5 1-4.7 2.5-6.5 4.4s-3.3 4.1-4.3 6.8c-1 2.6-1.5 5.5-1.5 8.7 0 4 .9 7.5 2.7 10.6s4.3 5.5 7.6 7.3 7.1 2.7 11.5 2.7c1.9 0 3.8-.2 5.6-.7 1.9-.5 3.7-1.1 5.5-2.1 1.8-.9 3.4-2 4.8-3.3l-5.1-7.2c-1.7 1.4-3.3 2.3-4.8 2.9s-3.1.8-4.9.8c-2.6 0-4.8-.5-6.8-1.4-1.9-1-3.4-2.4-4.4-4.2-.6-1-1-2.2-1.2-3.4h28.8z" fill="#ea1017"/></g></svg>